<?xml version="1.0" encoding="utf-8"?>
<!-- Generator: Adobe Illustrator 16.0.0, SVG Export Plug-In . SVG Version: 6.00 Build 0)  -->
<!DOCTYPE svg PUBLIC "-//W3C//DTD SVG 1.1//EN" "http://www.w3.org/Graphics/SVG/1.1/DTD/svg11.dtd">
<svg version="1.1" id="Layer_1" xmlns="http://www.w3.org/2000/svg" xmlns:xlink="http://www.w3.org/1999/xlink" x="0px" y="0px"
	 width="48px" height="48px" viewBox="0 0 48 48" enable-background="new 0 0 48 48" xml:space="preserve">
<g>
	<path fill="#FFFFFF" d="M27.644,7.075H12.991c-2.144,0-3.887,1.743-3.887,3.887v27.623c0,2.144,1.743,3.887,3.887,3.887h20.832
		c2.144,0,3.887-1.743,3.887-3.887V17.234C37.71,15.051,29.808,7.075,27.644,7.075z M35.144,16.234H30.53
		c-1.04,0-1.887-0.847-1.887-1.887V9.682C30.519,11.058,33.821,14.396,35.144,16.234z M33.823,40.472H12.991
		c-1.04,0-1.887-0.847-1.887-1.887V10.962c0-1.04,0.847-1.887,1.887-1.887L26.644,9.07v5.277c0,2.144,1.743,3.887,3.887,3.887h5.18
		v20.351C35.71,39.625,34.863,40.472,33.823,40.472z"/>
	<rect x="13.786" y="16.51" fill="#FFFFFF" width="8.994" height="2"/>
	<rect x="13.786" y="20.989" fill="#FFFFFF" width="11.258" height="2"/>
	<rect x="13.786" y="25.469" fill="#FFFFFF" width="14.662" height="2"/>
</g>
</svg>
