<?xml version="1.0" encoding="utf-8"?>
<!-- Generator: Adobe Illustrator 16.0.0, SVG Export Plug-In . SVG Version: 6.00 Build 0)  -->
<!DOCTYPE svg PUBLIC "-//W3C//DTD SVG 1.1//EN" "http://www.w3.org/Graphics/SVG/1.1/DTD/svg11.dtd">
<svg version="1.1" id="Layer_1" xmlns="http://www.w3.org/2000/svg" xmlns:xlink="http://www.w3.org/1999/xlink" x="0px" y="0px"
	 width="48px" height="48px" viewBox="0 0 48 48" enable-background="new 0 0 48 48" xml:space="preserve">
<g>
	<g>
		<path fill="#FFFFFF" d="M22.937,36.137c-0.221,0-0.44-0.035-0.654-0.104c-1.312-0.427-2.724-1.578-4.217-2.797
			c-1.194-0.975-2.43-1.982-3.323-2.322c-0.171-0.064-0.929-0.277-3.506-0.277c-0.771,0-1.343,0.021-1.351,0.021
			c-0.001,0-0.001,0-0.002,0c-1.649,0.001-2.962-1.312-2.962-2.925v-6.526c0-1.614,1.312-2.927,2.926-2.927
			c0.044,0.001,0.621,0.021,1.396,0.021c2.569,0,3.325-0.212,3.496-0.276c0.893-0.34,2.127-1.348,3.321-2.321
			c1.494-1.22,2.906-2.372,4.22-2.798c0.213-0.069,0.434-0.104,0.654-0.104c1.521,0,2.58,1.571,2.58,2.981l0.002,17.373
			C25.518,34.565,24.458,36.137,22.937,36.137z M11.236,28.636c3.145,0,3.952,0.308,4.217,0.408
			c1.196,0.455,2.498,1.518,3.877,2.643c1.285,1.048,2.614,2.133,3.57,2.443l0.036,0.007c0.182,0,0.581-0.475,0.581-0.982
			l-0.002-17.373c0-0.507-0.399-0.981-0.58-0.981c-0.994,0.317-2.324,1.402-3.609,2.451c-1.378,1.125-2.68,2.187-3.875,2.642
			c-0.265,0.101-1.07,0.407-4.207,0.407c-0.822,0-1.433-0.022-1.433-0.022c-0.475,0.001-0.89,0.417-0.89,0.928v6.526
			c0,0.51,0.415,0.925,0.926,0.926C9.851,28.656,10.443,28.636,11.236,28.636z"/>
	</g>
	<g>
		<g>
			<path fill="#FFFFFF" d="M29.148,29.326l-1.73-1.002c0.675-1.165,1.031-2.498,1.031-3.856s-0.357-2.692-1.033-3.856l1.73-1.004
				c0.853,1.469,1.303,3.149,1.303,4.86C30.449,26.178,29.999,27.857,29.148,29.326z"/>
		</g>
		<g>
			<path fill="#FFFFFF" d="M33.365,31.758l-1.73-1.002c1.102-1.902,1.684-4.077,1.684-6.288c0-2.212-0.582-4.387-1.684-6.289
				l1.73-1.002c1.277,2.207,1.953,4.728,1.953,7.291C35.318,27.03,34.643,29.551,33.365,31.758z"/>
		</g>
		<g>
			<path fill="#FFFFFF" d="M37.465,34.126l-1.73-1.002c1.516-2.619,2.316-5.612,2.316-8.656c0-3.043-0.801-6.036-2.316-8.655
				l1.73-1.002c1.691,2.923,2.586,6.263,2.586,9.657C40.051,27.863,39.156,31.203,37.465,34.126z"/>
		</g>
	</g>
</g>
</svg>
