<?xml version="1.0" encoding="utf-8"?>
<!-- Generator: Adobe Illustrator 16.0.0, SVG Export Plug-In . SVG Version: 6.00 Build 0)  -->
<!DOCTYPE svg PUBLIC "-//W3C//DTD SVG 1.1//EN" "http://www.w3.org/Graphics/SVG/1.1/DTD/svg11.dtd">
<svg version="1.1" id="Layer_1" xmlns="http://www.w3.org/2000/svg" xmlns:xlink="http://www.w3.org/1999/xlink" x="0px" y="0px"
	 width="48px" height="48px" viewBox="0 0 48 48" enable-background="new 0 0 48 48" xml:space="preserve">
<g>
	<path fill="#FFFFFF" d="M35.4,21.434h-3.219v-3.219c0-1.326-1.08-2.405-2.406-2.405h-3.215v-3.212c0-1.327-1.08-2.407-2.407-2.407
		H12.553c-1.327,0-2.406,1.08-2.406,2.407V24.2c0,1.325,1.079,2.405,2.406,2.405h3.214v3.213c0,1.328,1.08,2.406,2.407,2.406h3.219
		v3.219c0,1.328,1.079,2.406,2.406,2.406H35.4c1.326,0,2.406-1.078,2.406-2.406V23.841C37.807,22.514,36.729,21.434,35.4,21.434z
		 M12.553,24.604c-0.224,0-0.406-0.182-0.406-0.404V12.598c0-0.225,0.183-0.407,0.406-0.407h11.602c0.224,0,0.406,0.183,0.406,0.407
		v3.212h-0.004v8.383c0,0.225-0.183,0.407-0.406,0.407h-8.384v0.006h-3.214V24.604z M18.174,30.225
		c-0.225,0-0.407-0.183-0.407-0.406v-3.213h6.388c1.328,0,2.406-1.08,2.406-2.405v-6.39h3.215c0.225,0,0.406,0.182,0.406,0.405
		v3.219v8.384c0,0.225-0.183,0.406-0.406,0.406h-8.382H18.174z M35.807,35.443c0,0.224-0.183,0.406-0.406,0.406H23.799
		c-0.224,0-0.406-0.184-0.406-0.406v-3.219h6.382c1.328,0,2.406-1.08,2.406-2.406v-6.385H35.4c0.224,0,0.406,0.183,0.406,0.407
		V35.443L35.807,35.443z"/>
	<polygon fill="#FFFFFF" points="22.442,16.024 21.026,14.608 16.978,18.657 15.682,17.362 14.267,18.778 16.978,21.49 	"/>
</g>
</svg>
