<?xml version="1.0" encoding="utf-8"?>
<!-- Generator: Adobe Illustrator 16.0.0, SVG Export Plug-In . SVG Version: 6.00 Build 0)  -->
<!DOCTYPE svg PUBLIC "-//W3C//DTD SVG 1.1//EN" "http://www.w3.org/Graphics/SVG/1.1/DTD/svg11.dtd">
<svg version="1.1" id="Layer_1" xmlns="http://www.w3.org/2000/svg" xmlns:xlink="http://www.w3.org/1999/xlink" x="0px" y="0px"
	 width="48px" height="48px" viewBox="0 0 48 48" enable-background="new 0 0 48 48" xml:space="preserve">
<path fill="#FFFFFF" d="M38.903,30.182l0.001-1.921c0-0.871,0-3.186-2.474-4.382c-0.349-0.169-0.774-0.251-1.301-0.251
	c-0.254,0-0.504,0.02-0.725,0.046c-0.615-1.023-1.248-1.38-2.265-1.701c-0.726-0.229-1.849-0.052-2.614,0.158
	c-0.692-0.843-1.813-1.447-2.704-1.584c-0.601-0.091-1.122-0.065-1.604,0.036l-0.365-3.461c2.216-1.3,3.713-3.699,3.713-6.448
	c0-4.126-3.357-7.482-7.482-7.482s-7.481,3.356-7.481,7.482c0,2.885,1.646,5.389,4.044,6.636l-0.284,13.223l-3-2.564
	c-0.454-0.317-0.973-0.485-1.5-0.485c-0.602,0-1.487,0.218-2.292,1.253c-1.312,1.686-0.468,3.482,0.415,4.859
	c1,1.558,3.398,5.146,3.443,5.208l0.057,0.073c1.648,2.671,5.637,7.085,13.979,7.085h0.118c7.344-0.036,10.189-6.405,10.403-12.414
	L38.903,30.182z M15.603,10.674c0-3.023,2.459-5.482,5.481-5.482c3.023,0,5.482,2.459,5.482,5.482c0,1.676-0.765,3.166-1.953,4.172
	l-0.214-2.022c-0.133-1.001-0.537-4.05-3.75-4.05c-2.909,0-2.909,2.824-2.909,4.16l-0.043,2.026
	C16.427,13.956,15.603,12.414,15.603,10.674z M28.573,43.961h-0.108c-7.049,0-10.581-3.359-12.304-6.179l-0.115-0.152
	c0-0.001-2.384-3.567-3.377-5.114c-1.045-1.632-0.843-2.138-0.52-2.553c0.17-0.219,0.432-0.48,0.713-0.48
	c0.157,0,0.278,0.066,0.276,0.064l6.132,5.251l0.47-21.843c0-2.182,0.342-2.182,0.909-2.182c0.799,0,1.483,0.174,1.765,2.286
	l1.088,10.318l1.247-0.535c0.812-0.348,1.19-0.407,1.769-0.319c0.616,0.095,1.457,0.688,1.636,1.152l0.354,0.927l0.929-0.348
	c0.279-0.104,1.218-0.401,1.849-0.401c0.159,0,0.233,0.02,0.252,0.025c0.693,0.22,0.927,0.293,1.422,1.331l0.348,0.726l0.784-0.183
	c0.005-0.002,0.538-0.125,1.039-0.125c0.317,0,0.429,0.051,0.43,0.052c1.125,0.544,1.345,1.358,1.345,2.58l-0.001,1.945l0.084,3.33
	C36.899,35.972,36.034,43.924,28.573,43.961z"/>
</svg>
