<?xml version="1.0" encoding="utf-8"?>
<!-- Generator: Adobe Illustrator 16.0.0, SVG Export Plug-In . SVG Version: 6.00 Build 0)  -->
<!DOCTYPE svg PUBLIC "-//W3C//DTD SVG 1.1//EN" "http://www.w3.org/Graphics/SVG/1.1/DTD/svg11.dtd">
<svg version="1.1" id="Layer_1" xmlns="http://www.w3.org/2000/svg" xmlns:xlink="http://www.w3.org/1999/xlink" x="0px" y="0px"
	 width="48px" height="48px" viewBox="0 0 48 48" enable-background="new 0 0 48 48" xml:space="preserve">
<g>
	<g>
		<path fill="#FFFFFF" d="M43.865,16.225c-0.18-1.51-1.451-2.688-3.008-2.688h-0.644c-0.438-1.415-1.743-2.452-3.301-2.452H9.732
			c-1.557,0-2.861,1.037-3.301,2.452h-0.64c-1.557,0-2.83,1.179-3.009,2.688C1.229,16.359,0,17.653,0,19.242v10.447
			c0,1.59,1.229,2.884,2.783,3.02c0.179,1.51,1.452,2.688,3.009,2.688h0.64c0.439,1.416,1.744,2.453,3.301,2.453h27.182
			c1.558,0,2.862-1.037,3.301-2.453h0.644c1.557,0,2.828-1.179,3.008-2.688c1.555-0.136,2.783-1.43,2.783-3.02V19.242
			C46.648,17.653,45.42,16.36,43.865,16.225z M2.747,30.675C2.318,30.545,2,30.161,2,29.689V19.242c0-0.47,0.318-0.854,0.747-0.983
			V30.675z M6.262,33.396h-0.47c-0.576,0-1.045-0.469-1.045-1.045V16.581c0-0.576,0.469-1.045,1.045-1.045h0.47V33.396z
			 M38.386,34.378c0,0.812-0.659,1.472-1.472,1.472H9.732c-0.811,0-1.471-0.66-1.471-1.472V14.556c0-0.812,0.66-1.472,1.471-1.472
			h27.182c0.812,0,1.472,0.66,1.472,1.472V34.378z M41.9,32.354c0,0.576-0.469,1.045-1.043,1.045h-0.473V15.536h0.473
			c0.574,0,1.043,0.469,1.043,1.045V32.354z M44.648,29.689c0,0.472-0.318,0.854-0.748,0.984V18.259
			c0.43,0.13,0.748,0.514,0.748,0.983V29.689z"/>
		<path fill="#FFFFFF" d="M10.841,24.447c-0.007,1.373,3.097,3.615,4.886,3.771c0,0-1.342-2.637-1.342-3.754
			c0-1.118,1.344-3.734,1.344-3.734C13.908,20.943,10.848,23.067,10.841,24.447z"/>
		<path fill="#FFFFFF" d="M30.923,20.715c0,0,1.341,2.637,1.341,3.754c0,1.118-1.343,3.734-1.343,3.734
			c1.817-0.213,4.88-2.337,4.888-3.717C35.814,23.113,32.711,20.871,30.923,20.715z"/>
	</g>
</g>
</svg>
