<?xml version="1.0" encoding="utf-8"?>
<!-- Generator: Adobe Illustrator 16.0.0, SVG Export Plug-In . SVG Version: 6.00 Build 0)  -->
<!DOCTYPE svg PUBLIC "-//W3C//DTD SVG 1.1//EN" "http://www.w3.org/Graphics/SVG/1.1/DTD/svg11.dtd">
<svg version="1.1" id="Layer_1" xmlns="http://www.w3.org/2000/svg" xmlns:xlink="http://www.w3.org/1999/xlink" x="0px" y="0px"
	 width="48px" height="48px" viewBox="0 0 48 48" enable-background="new 0 0 48 48" xml:space="preserve">
<g>
	<g>
		<path fill="#FFFFFF" d="M21.072,17.848c-1.559,0.816-1.1,12.41,0,12.823c2.635,0.992,9.915-3.596,9.93-6.411
			C31.016,21.443,23.566,16.541,21.072,17.848z"/>
		<path fill="#FFFFFF" d="M36.672,11.786C33.172,8.287,28.586,6.538,24,6.538c-4.588,0-9.174,1.749-12.672,5.248
			c-7,7-7,18.346,0,25.346C14.826,40.631,19.412,42.38,24,42.38c4.586,0,9.172-1.749,12.672-5.248
			C43.672,30.132,43.672,18.786,36.672,11.786z M35.258,35.718C32.25,38.725,28.252,40.38,24,40.38
			c-4.254,0-8.252-1.655-11.258-4.662c-6.207-6.208-6.207-16.31,0-22.518C15.748,10.193,19.746,8.538,24,8.538
			c4.252,0,8.25,1.655,11.258,4.662C41.465,19.408,41.465,29.51,35.258,35.718z"/>
	</g>
</g>
</svg>
