<?xml version="1.0" encoding="utf-8"?>
<!-- Generator: Adobe Illustrator 16.0.0, SVG Export Plug-In . SVG Version: 6.00 Build 0)  -->
<!DOCTYPE svg PUBLIC "-//W3C//DTD SVG 1.1//EN" "http://www.w3.org/Graphics/SVG/1.1/DTD/svg11.dtd">
<svg version="1.1" id="Layer_1" xmlns="http://www.w3.org/2000/svg" xmlns:xlink="http://www.w3.org/1999/xlink" x="0px" y="0px"
	 width="48px" height="48px" viewBox="0 0 48 48" enable-background="new 0 0 48 48" xml:space="preserve">
<g>
	<g>
		<circle fill="#FFFFFF" cx="36.547" cy="22.696" r="3.114"/>
		<path fill="#FFFFFF" d="M39.822,15.006h-0.35c-0.046-1.898-1.576-3.428-3.476-3.471c-0.043-1.928-1.617-3.484-3.558-3.484H7.922
			c-1.965,0-3.564,1.598-3.564,3.562v18.495c0,1.938,1.559,3.51,3.486,3.553c0.043,1.928,1.617,3.484,3.553,3.484h0.352
			c0.047,1.926,1.619,3.477,3.555,3.477h24.52c1.965,0,3.562-1.598,3.562-3.562v-18.49C43.385,16.604,41.787,15.006,39.822,15.006z
			 M39.48,17.006h0.342c0.861,0,1.562,0.701,1.562,1.562v18.491c0,0.1-0.012,0.192-0.028,0.286
			c-0.851,0.041-4.681,0.177-5.752-0.596c-2.07-1.485-3.609-7.994-6.154-8.127c-1.277-0.065-3.498,3.737-3.498,3.737
			s-3.277-6.653-5.398-6.555c-2.746,0.129-6.09,8.096-6.814,9.902V18.568c0-0.861,0.701-1.562,1.564-1.562H39.48z M7.836,15.09
			v16.576c-0.822-0.045-1.479-0.727-1.479-1.559V11.613c0-0.861,0.701-1.562,1.564-1.562h24.521c0.834,0,1.518,0.654,1.562,1.477
			H11.396C9.434,11.527,7.836,13.125,7.836,15.09z M11.738,18.568v16.577h-0.342c-0.861,0-1.561-0.701-1.561-1.562V15.09
			c0-0.861,0.699-1.562,1.561-1.562h24.521c0.834,0,1.517,0.656,1.562,1.479H15.303C13.338,15.006,11.738,16.604,11.738,18.568z"/>
	</g>
</g>
</svg>
