<?xml version="1.0" encoding="utf-8"?>
<!-- Generator: Adobe Illustrator 16.0.0, SVG Export Plug-In . SVG Version: 6.00 Build 0)  -->
<!DOCTYPE svg PUBLIC "-//W3C//DTD SVG 1.1//EN" "http://www.w3.org/Graphics/SVG/1.1/DTD/svg11.dtd">
<svg version="1.1" id="Layer_1" xmlns="http://www.w3.org/2000/svg" xmlns:xlink="http://www.w3.org/1999/xlink" x="0px" y="0px"
	 width="48px" height="48px" viewBox="0 0 48 48" enable-background="new 0 0 48 48" xml:space="preserve">
<g>
	<circle fill="#FFFFFF" cx="32.734" cy="19.042" r="3.029"/>
	<path fill="#FFFFFF" d="M35.921,11.562h-0.34c-0.001-0.012-0.003-0.023-0.003-0.035h-0.975h-0.969
		c0.001,0.013,0.006,0.024,0.006,0.036H12.074c-1.868-0.001-3.393,1.486-3.461,3.337v17.222v0.972h0.004
		c0.046,1.873,1.575,3.381,3.458,3.381h23.848c1.911,0,3.464-1.553,3.464-3.465V15.027C39.386,13.116,37.831,11.562,35.921,11.562z
		 M10.554,15.026c0-0.838,0.681-1.52,1.521-1.52h23.514h0.333c0.838,0,1.52,0.682,1.52,1.52v17.982c0,0.098-0.012,0.188-0.027,0.279
		c-0.827,0.04-4.553,0.172-5.596-0.579c-2.012-1.444-3.51-7.776-5.984-7.905c-1.242-0.062-3.402,3.635-3.402,3.635
		s-3.188-6.47-5.25-6.374c-2.671,0.125-5.923,7.874-6.626,9.629V15.026H10.554z"/>
</g>
</svg>
