<?xml version="1.0" encoding="utf-8"?>
<!-- Generator: Adobe Illustrator 16.0.0, SVG Export Plug-In . SVG Version: 6.00 Build 0)  -->
<!DOCTYPE svg PUBLIC "-//W3C//DTD SVG 1.1//EN" "http://www.w3.org/Graphics/SVG/1.1/DTD/svg11.dtd">
<svg version="1.1" id="Layer_1" xmlns="http://www.w3.org/2000/svg" xmlns:xlink="http://www.w3.org/1999/xlink" x="0px" y="0px"
	 width="48px" height="48px" viewBox="0 0 48 48" enable-background="new 0 0 48 48" xml:space="preserve">
<g>
	<path fill="#FFFFFF" d="M36.164,11.272c-3.488-3.416-8.016-5.118-12.539-5.118c-4.648,0-9.293,1.798-12.804,5.382
		c-6.926,7.072-6.809,18.418,0.265,25.343c3.486,3.415,8.014,5.118,12.537,5.118c4.649,0,9.295-1.797,12.805-5.381
		C43.354,29.545,43.236,18.2,36.164,11.272z M34.999,35.217c-3.02,3.083-7.06,4.78-11.376,4.78c-4.189,0-8.145-1.615-11.139-4.547
		c-3.038-2.976-4.736-6.956-4.78-11.208s1.57-8.268,4.546-11.307c3.02-3.083,7.06-4.781,11.375-4.781
		c4.189,0,8.145,1.615,11.14,4.547C41.036,18.845,41.142,28.945,34.999,35.217z"/>
	<path fill="#FFFFFF" d="M29.641,19.488l-0.154,1.994c1.381,0.106,3.668,1.885,3.746,2.529c-0.06,0.633-2.286,2.396-3.724,2.581
		l0.256,1.984c2.064-0.268,5.479-2.58,5.468-4.571C35.219,21.979,31.635,19.642,29.641,19.488z"/>
	<path fill="#FFFFFF" d="M14.204,24.152c0.06-0.634,2.286-2.396,3.725-2.58l-0.256-1.984c-2.064,0.267-5.479,2.578-5.469,4.57
		c0.014,2.026,3.598,4.363,5.593,4.519l0.154-1.994C16.569,26.575,14.282,24.797,14.204,24.152z"/>
	
		<rect x="22.799" y="17.837" transform="matrix(-0.9549 -0.2968 0.2968 -0.9549 39.3791 54.1276)" fill="#FFFFFF" width="2" height="12.474"/>
</g>
</svg>
